<svg width="576" height="167" viewBox="0 0 576 167" fill="none" xmlns="http://www.w3.org/2000/svg">
<path d="M212.912 49.264H225.68L246.704 85.648H247.472L268.496 49.264H281.36V118H268.496V84.112L269.264 72.592H268.496L251.024 103.408H243.248L225.68 72.592H224.912L225.68 84.112V118H212.912V49.264ZM338.233 106.672C336.057 110.512 333.113 113.616 329.401 115.984C325.753 118.352 321.273 119.536 315.961 119.536C312.377 119.536 309.049 118.928 305.977 117.712C302.969 116.432 300.345 114.672 298.105 112.432C295.865 110.192 294.105 107.568 292.825 104.56C291.609 101.488 291.001 98.128 291.001 94.48C291.001 91.088 291.609 87.888 292.825 84.88C294.041 81.808 295.737 79.152 297.913 76.912C300.089 74.608 302.649 72.784 305.593 71.44C308.601 70.096 311.897 69.424 315.481 69.424C319.257 69.424 322.617 70.064 325.561 71.344C328.505 72.56 330.969 74.288 332.953 76.528C334.937 78.704 336.441 81.296 337.465 84.304C338.489 87.312 339 90.576 339 94.096C339 94.544 339 94.928 339 95.248C338.937 95.632 338.905 95.984 338.905 96.304C338.841 96.624 338.809 96.976 338.809 97.36H303.385C303.641 99.28 304.153 100.944 304.921 102.352C305.753 103.696 306.745 104.848 307.897 105.808C309.113 106.704 310.425 107.376 311.833 107.824C313.241 108.208 314.681 108.4 316.153 108.4C319.033 108.4 321.401 107.76 323.257 106.48C325.177 105.136 326.681 103.472 327.769 101.488L338.233 106.672ZM326.809 88.432C326.745 87.6 326.457 86.672 325.945 85.648C325.497 84.624 324.793 83.664 323.833 82.768C322.937 81.872 321.785 81.136 320.377 80.56C319.033 79.984 317.401 79.696 315.481 79.696C312.793 79.696 310.425 80.464 308.377 82C306.329 83.536 304.889 85.68 304.057 88.432H326.809ZM350.81 81.712H342.554V70.96H350.81V56.56H363.386V70.96H374.906V81.712H363.386V99.952C363.386 101.04 363.482 102.064 363.674 103.024C363.93 103.92 364.378 104.688 365.018 105.328C365.914 106.352 367.194 106.864 368.858 106.864C369.946 106.864 370.81 106.768 371.45 106.576C372.09 106.32 372.698 106 373.274 105.616L376.826 116.656C375.354 117.36 373.754 117.872 372.026 118.192C370.362 118.576 368.506 118.768 366.458 118.768C364.09 118.768 361.946 118.416 360.026 117.712C358.17 116.944 356.602 115.92 355.322 114.64C352.314 111.76 350.81 107.664 350.81 102.352V81.712ZM428.233 106.672C426.057 110.512 423.113 113.616 419.401 115.984C415.753 118.352 411.273 119.536 405.961 119.536C402.377 119.536 399.049 118.928 395.977 117.712C392.969 116.432 390.345 114.672 388.105 112.432C385.865 110.192 384.105 107.568 382.825 104.56C381.609 101.488 381.001 98.128 381.001 94.48C381.001 91.088 381.609 87.888 382.825 84.88C384.041 81.808 385.737 79.152 387.913 76.912C390.089 74.608 392.649 72.784 395.593 71.44C398.601 70.096 401.897 69.424 405.481 69.424C409.257 69.424 412.617 70.064 415.561 71.344C418.505 72.56 420.969 74.288 422.953 76.528C424.937 78.704 426.441 81.296 427.465 84.304C428.489 87.312 429 90.576 429 94.096C429 94.544 429 94.928 429 95.248C428.937 95.632 428.905 95.984 428.905 96.304C428.841 96.624 428.809 96.976 428.809 97.36H393.385C393.641 99.28 394.153 100.944 394.921 102.352C395.753 103.696 396.745 104.848 397.897 105.808C399.113 106.704 400.425 107.376 401.833 107.824C403.241 108.208 404.681 108.4 406.153 108.4C409.033 108.4 411.401 107.76 413.257 106.48C415.177 105.136 416.681 103.472 417.769 101.488L428.233 106.672ZM416.809 88.432C416.745 87.6 416.457 86.672 415.945 85.648C415.497 84.624 414.793 83.664 413.833 82.768C412.937 81.872 411.785 81.136 410.377 80.56C409.033 79.984 407.401 79.696 405.481 79.696C402.793 79.696 400.425 80.464 398.377 82C396.329 83.536 394.889 85.68 394.057 88.432H416.809ZM459.773 69.424C463.421 69.424 466.749 70.064 469.757 71.344C472.829 72.56 475.453 74.288 477.629 76.528C479.869 78.704 481.597 81.328 482.813 84.4C484.093 87.472 484.733 90.832 484.733 94.48C484.733 98.128 484.093 101.488 482.813 104.56C481.597 107.632 479.869 110.288 477.629 112.528C475.453 114.704 472.829 116.432 469.757 117.712C466.749 118.928 463.421 119.536 459.773 119.536C456.125 119.536 452.765 118.928 449.693 117.712C446.685 116.432 444.061 114.704 441.821 112.528C439.645 110.288 437.917 107.632 436.637 104.56C435.421 101.488 434.813 98.128 434.813 94.48C434.813 90.832 435.421 87.472 436.637 84.4C437.917 81.328 439.645 78.704 441.821 76.528C444.061 74.288 446.685 72.56 449.693 71.344C452.765 70.064 456.125 69.424 459.773 69.424ZM459.773 107.92C461.373 107.92 462.909 107.632 464.381 107.056C465.917 106.416 467.261 105.52 468.413 104.368C469.565 103.216 470.461 101.808 471.101 100.144C471.805 98.48 472.157 96.592 472.157 94.48C472.157 92.368 471.805 90.48 471.101 88.816C470.461 87.152 469.565 85.744 468.413 84.592C467.261 83.44 465.917 82.576 464.381 82C462.909 81.36 461.373 81.04 459.773 81.04C458.109 81.04 456.541 81.36 455.069 82C453.597 82.576 452.285 83.44 451.133 84.592C449.981 85.744 449.053 87.152 448.349 88.816C447.709 90.48 447.389 92.368 447.389 94.48C447.389 96.592 447.709 98.48 448.349 100.144C449.053 101.808 449.981 103.216 451.133 104.368C452.285 105.52 453.597 106.416 455.069 107.056C456.541 107.632 458.109 107.92 459.773 107.92ZM491.876 70.96H503.684V77.488H504.452C505.028 76.336 505.796 75.28 506.756 74.32C507.716 73.36 508.772 72.528 509.924 71.824C511.14 71.12 512.42 70.576 513.764 70.192C515.172 69.808 516.548 69.616 517.892 69.616C519.556 69.616 520.964 69.776 522.116 70.096C523.332 70.416 524.356 70.832 525.188 71.344L521.828 82.768C521.06 82.384 520.196 82.096 519.236 81.904C518.34 81.648 517.22 81.52 515.876 81.52C514.148 81.52 512.58 81.872 511.172 82.576C509.764 83.216 508.548 84.144 507.524 85.36C506.564 86.576 505.796 88.016 505.22 89.68C504.708 91.28 504.452 93.04 504.452 94.96V118H491.876V70.96ZM558.087 113.008H557.319C555.847 114.8 554.055 116.336 551.943 117.616C549.895 118.896 547.239 119.536 543.975 119.536C541.543 119.536 539.239 119.12 537.063 118.288C534.951 117.52 533.095 116.432 531.495 115.024C529.895 113.616 528.647 111.92 527.751 109.936C526.855 107.952 526.407 105.776 526.407 103.408C526.407 100.976 526.887 98.8 527.847 96.88C528.807 94.896 530.151 93.2 531.879 91.792C533.607 90.384 535.623 89.328 537.927 88.624C540.295 87.856 542.855 87.472 545.607 87.472C548.679 87.472 551.207 87.728 553.191 88.24C555.175 88.688 556.807 89.168 558.087 89.68V88.24C558.087 85.744 557.095 83.696 555.111 82.096C553.127 80.432 550.663 79.6 547.719 79.6C543.367 79.6 539.687 81.424 536.679 85.072L527.559 78.832C532.551 72.56 539.367 69.424 548.007 69.424C555.303 69.424 560.871 71.152 564.711 74.608C568.551 78 570.471 83.056 570.471 89.776V118H558.087V113.008ZM558.087 98.896C556.615 98.192 555.079 97.648 553.479 97.264C551.943 96.816 550.247 96.592 548.391 96.592C545.383 96.592 543.047 97.264 541.383 98.608C539.783 99.888 538.983 101.488 538.983 103.408C538.983 105.328 539.751 106.864 541.287 108.016C542.887 109.168 544.711 109.744 546.759 109.744C548.423 109.744 549.959 109.456 551.367 108.88C552.775 108.24 553.959 107.44 554.919 106.48C555.943 105.456 556.711 104.304 557.223 103.024C557.799 101.68 558.087 100.304 558.087 98.896Z" fill="#262D33"/>
<rect width="167" height="167" rx="83.5" fill="url(#paint0_linear_1111_2496)"/>
<circle cx="102" cy="68" r="25" fill="url(#paint1_linear_1111_2496)" fill-opacity="0.95"/>
<mask id="path-4-inside-1_1111_2496" fill="white">
<path fill-rule="evenodd" clip-rule="evenodd" d="M88.7751 114.563C85.4019 117.524 80.9797 119.32 76.1381 119.32C69.2911 119.32 63.2829 115.729 59.8941 110.327C56.6522 112.841 52.5817 114.338 48.1616 114.338C37.5787 114.338 28.9995 105.758 28.9995 95.1753C28.9995 84.5921 37.5787 76.0128 48.1616 76.0128L48.1952 76.0128C48.7897 65.9649 57.1264 58 67.3233 58C75.0571 58 81.7209 62.5818 84.7483 69.1792C87.0558 68.1944 89.5959 67.6494 92.2633 67.6494C100.129 67.6494 106.888 72.3889 109.84 79.168C110.351 79.109 110.87 79.0787 111.396 79.0787C118.804 79.0787 124.81 85.0842 124.81 92.4925C124.81 99.9007 118.804 105.906 111.396 105.906C110.378 105.906 109.387 105.793 108.434 105.578C107.17 111.673 101.77 116.254 95.3001 116.254C92.9316 116.254 90.7064 115.64 88.7751 114.563Z"/>
</mask>
<path fill-rule="evenodd" clip-rule="evenodd" d="M88.7751 114.563C85.4019 117.524 80.9797 119.32 76.1381 119.32C69.2911 119.32 63.2829 115.729 59.8941 110.327C56.6522 112.841 52.5817 114.338 48.1616 114.338C37.5787 114.338 28.9995 105.758 28.9995 95.1753C28.9995 84.5921 37.5787 76.0128 48.1616 76.0128L48.1952 76.0128C48.7897 65.9649 57.1264 58 67.3233 58C75.0571 58 81.7209 62.5818 84.7483 69.1792C87.0558 68.1944 89.5959 67.6494 92.2633 67.6494C100.129 67.6494 106.888 72.3889 109.84 79.168C110.351 79.109 110.87 79.0787 111.396 79.0787C118.804 79.0787 124.81 85.0842 124.81 92.4925C124.81 99.9007 118.804 105.906 111.396 105.906C110.378 105.906 109.387 105.793 108.434 105.578C107.17 111.673 101.77 116.254 95.3001 116.254C92.9316 116.254 90.7064 115.64 88.7751 114.563Z" fill="url(#paint2_linear_1111_2496)"/>
<path d="M88.7751 114.563L88.4452 114.187L88.7105 113.954L89.0187 114.126L88.7751 114.563ZM59.8941 110.327L59.5877 109.932L60.0242 109.593L60.3177 110.061L59.8941 110.327ZM48.1616 76.0128L48.1616 75.5128L48.162 75.5128L48.1616 76.0128ZM48.1952 76.0128L48.6943 76.0423L48.6664 76.5132L48.1947 76.5128L48.1952 76.0128ZM84.7483 69.1792L84.9446 69.639L84.4969 69.8301L84.2939 69.3877L84.7483 69.1792ZM109.84 79.168L109.898 79.6647L109.53 79.7072L109.382 79.3676L109.84 79.168ZM108.434 105.578L107.944 105.476L108.048 104.978L108.544 105.09L108.434 105.578ZM89.105 114.938C85.6441 117.977 81.1057 119.82 76.1381 119.82V118.82C80.8537 118.82 85.1597 117.072 88.4452 114.187L89.105 114.938ZM76.1381 119.82C69.1119 119.82 62.9469 116.134 59.4706 110.593L60.3177 110.061C63.6188 115.323 69.4703 118.82 76.1381 118.82V119.82ZM60.2006 110.722C56.8741 113.302 52.6965 114.838 48.1616 114.838V113.838C52.4669 113.838 56.4304 112.38 59.5877 109.932L60.2006 110.722ZM48.1616 114.838C37.3025 114.838 28.4995 106.035 28.4995 95.1753H29.4995C29.4995 105.482 37.8548 113.838 48.1616 113.838V114.838ZM28.4995 95.1753C28.4995 84.316 37.3025 75.5128 48.1616 75.5128V76.5128C37.8548 76.5128 29.4995 84.8682 29.4995 95.1753H28.4995ZM48.162 75.5128L48.1956 75.5128L48.1947 76.5128L48.1611 76.5128L48.162 75.5128ZM47.696 75.9833C48.3062 65.6728 56.8601 57.5 67.3233 57.5V58.5C57.3926 58.5 49.2733 66.2571 48.6943 76.0423L47.696 75.9833ZM67.3233 57.5C75.2597 57.5 82.0969 62.2023 85.2027 68.9706L84.2939 69.3877C81.3449 62.9614 74.8546 58.5 67.3233 58.5V57.5ZM84.552 68.7193C86.9205 67.7085 89.5272 67.1494 92.2633 67.1494V68.1494C89.6646 68.1494 87.1912 68.6802 84.9446 69.639L84.552 68.7193ZM92.2633 67.1494C100.335 67.1494 107.27 72.0134 110.299 78.9684L109.382 79.3676C106.506 72.7643 99.9231 68.1494 92.2633 68.1494V67.1494ZM109.783 78.6713C110.312 78.6101 110.851 78.5787 111.396 78.5787V79.5787C110.889 79.5787 110.389 79.6079 109.898 79.6647L109.783 78.6713ZM111.396 78.5787C119.08 78.5787 125.31 84.8081 125.31 92.4925H124.31C124.31 85.3604 118.528 79.5787 111.396 79.5787V78.5787ZM125.31 92.4925C125.31 100.177 119.08 106.406 111.396 106.406V105.406C118.528 105.406 124.31 99.6245 124.31 92.4925H125.31ZM111.396 106.406C110.341 106.406 109.313 106.289 108.324 106.066L108.544 105.09C109.461 105.297 110.416 105.406 111.396 105.406V106.406ZM95.3001 115.754C101.528 115.754 106.728 111.344 107.944 105.476L108.924 105.68C107.612 112.002 102.012 116.754 95.3001 116.754V115.754ZM89.0187 114.126C90.8775 115.163 93.019 115.754 95.3001 115.754V116.754C92.8441 116.754 90.5354 116.117 88.5315 114.999L89.0187 114.126Z" fill="url(#paint3_linear_1111_2496)" mask="url(#path-4-inside-1_1111_2496)"/>
<defs>
<linearGradient id="paint0_linear_1111_2496" x1="83.5" y1="0" x2="83.5" y2="167" gradientUnits="userSpaceOnUse">
<stop stop-color="#7F7FD5"/>
<stop offset="0.5" stop-color="#86A8E7"/>
<stop offset="1" stop-color="#91EAE4"/>
</linearGradient>
<linearGradient id="paint1_linear_1111_2496" x1="83.5" y1="84.5" x2="119" y2="49.5" gradientUnits="userSpaceOnUse">
<stop stop-color="#F39A4B"/>
<stop offset="1" stop-color="#F2C74B"/>
</linearGradient>
<linearGradient id="paint2_linear_1111_2496" x1="28.9995" y1="98" x2="108" y2="74" gradientUnits="userSpaceOnUse">
<stop stop-color="white" stop-opacity="0.7"/>
<stop offset="0.5" stop-color="white" stop-opacity="0.85"/>
<stop offset="1" stop-color="white"/>
</linearGradient>
<linearGradient id="paint3_linear_1111_2496" x1="125" y1="91.5" x2="28.9995" y2="95.5" gradientUnits="userSpaceOnUse">
<stop stop-color="white"/>
<stop offset="0.5" stop-color="white" stop-opacity="0.85"/>
<stop offset="1" stop-color="white"/>
</linearGradient>
</defs>
</svg>
