<svg width="167" height="167" viewBox="0 0 167 167" fill="none" xmlns="http://www.w3.org/2000/svg">
<rect width="167" height="167" rx="83.5" fill="url(#paint0_linear_1111_2485)"/>
<circle cx="102" cy="68" r="25" fill="url(#paint1_linear_1111_2485)" fill-opacity="0.95"/>
<mask id="path-3-inside-1_1111_2485" fill="white">
<path fill-rule="evenodd" clip-rule="evenodd" d="M88.7751 114.563C85.4019 117.524 80.9797 119.32 76.1381 119.32C69.2911 119.32 63.2829 115.729 59.8941 110.327C56.6522 112.841 52.5817 114.338 48.1616 114.338C37.5787 114.338 28.9995 105.758 28.9995 95.1753C28.9995 84.5921 37.5787 76.0128 48.1616 76.0128L48.1952 76.0128C48.7897 65.9649 57.1264 58 67.3233 58C75.0571 58 81.7209 62.5818 84.7483 69.1792C87.0558 68.1944 89.5959 67.6494 92.2633 67.6494C100.129 67.6494 106.888 72.3889 109.84 79.168C110.351 79.109 110.87 79.0787 111.396 79.0787C118.804 79.0787 124.81 85.0842 124.81 92.4925C124.81 99.9007 118.804 105.906 111.396 105.906C110.378 105.906 109.387 105.793 108.434 105.578C107.17 111.673 101.77 116.254 95.3001 116.254C92.9316 116.254 90.7064 115.64 88.7751 114.563Z"/>
</mask>
<path fill-rule="evenodd" clip-rule="evenodd" d="M88.7751 114.563C85.4019 117.524 80.9797 119.32 76.1381 119.32C69.2911 119.32 63.2829 115.729 59.8941 110.327C56.6522 112.841 52.5817 114.338 48.1616 114.338C37.5787 114.338 28.9995 105.758 28.9995 95.1753C28.9995 84.5921 37.5787 76.0128 48.1616 76.0128L48.1952 76.0128C48.7897 65.9649 57.1264 58 67.3233 58C75.0571 58 81.7209 62.5818 84.7483 69.1792C87.0558 68.1944 89.5959 67.6494 92.2633 67.6494C100.129 67.6494 106.888 72.3889 109.84 79.168C110.351 79.109 110.87 79.0787 111.396 79.0787C118.804 79.0787 124.81 85.0842 124.81 92.4925C124.81 99.9007 118.804 105.906 111.396 105.906C110.378 105.906 109.387 105.793 108.434 105.578C107.17 111.673 101.77 116.254 95.3001 116.254C92.9316 116.254 90.7064 115.64 88.7751 114.563Z" fill="url(#paint2_linear_1111_2485)"/>
<path d="M88.7751 114.563L88.4452 114.187L88.7105 113.954L89.0187 114.126L88.7751 114.563ZM59.8941 110.327L59.5877 109.932L60.0242 109.593L60.3177 110.061L59.8941 110.327ZM48.1616 76.0128L48.1616 75.5128L48.162 75.5128L48.1616 76.0128ZM48.1952 76.0128L48.6943 76.0423L48.6664 76.5132L48.1947 76.5128L48.1952 76.0128ZM84.7483 69.1792L84.9446 69.639L84.4969 69.8301L84.2939 69.3877L84.7483 69.1792ZM109.84 79.168L109.898 79.6647L109.53 79.7072L109.382 79.3676L109.84 79.168ZM108.434 105.578L107.944 105.476L108.048 104.978L108.544 105.09L108.434 105.578ZM89.105 114.938C85.6441 117.977 81.1057 119.82 76.1381 119.82V118.82C80.8537 118.82 85.1597 117.072 88.4452 114.187L89.105 114.938ZM76.1381 119.82C69.1119 119.82 62.9469 116.134 59.4706 110.593L60.3177 110.061C63.6188 115.323 69.4703 118.82 76.1381 118.82V119.82ZM60.2006 110.722C56.8741 113.302 52.6965 114.838 48.1616 114.838V113.838C52.4669 113.838 56.4304 112.38 59.5877 109.932L60.2006 110.722ZM48.1616 114.838C37.3025 114.838 28.4995 106.035 28.4995 95.1753H29.4995C29.4995 105.482 37.8548 113.838 48.1616 113.838V114.838ZM28.4995 95.1753C28.4995 84.316 37.3025 75.5128 48.1616 75.5128V76.5128C37.8548 76.5128 29.4995 84.8682 29.4995 95.1753H28.4995ZM48.162 75.5128L48.1956 75.5128L48.1947 76.5128L48.1611 76.5128L48.162 75.5128ZM47.696 75.9833C48.3062 65.6728 56.8601 57.5 67.3233 57.5V58.5C57.3926 58.5 49.2733 66.2571 48.6943 76.0423L47.696 75.9833ZM67.3233 57.5C75.2597 57.5 82.0969 62.2023 85.2027 68.9706L84.2939 69.3877C81.3449 62.9614 74.8546 58.5 67.3233 58.5V57.5ZM84.552 68.7193C86.9205 67.7085 89.5272 67.1494 92.2633 67.1494V68.1494C89.6646 68.1494 87.1912 68.6802 84.9446 69.639L84.552 68.7193ZM92.2633 67.1494C100.335 67.1494 107.27 72.0134 110.299 78.9684L109.382 79.3676C106.506 72.7643 99.9231 68.1494 92.2633 68.1494V67.1494ZM109.783 78.6713C110.312 78.6101 110.851 78.5787 111.396 78.5787V79.5787C110.889 79.5787 110.389 79.6079 109.898 79.6647L109.783 78.6713ZM111.396 78.5787C119.08 78.5787 125.31 84.8081 125.31 92.4925H124.31C124.31 85.3604 118.528 79.5787 111.396 79.5787V78.5787ZM125.31 92.4925C125.31 100.177 119.08 106.406 111.396 106.406V105.406C118.528 105.406 124.31 99.6245 124.31 92.4925H125.31ZM111.396 106.406C110.341 106.406 109.313 106.289 108.324 106.066L108.544 105.09C109.461 105.297 110.416 105.406 111.396 105.406V106.406ZM95.3001 115.754C101.528 115.754 106.728 111.344 107.944 105.476L108.924 105.68C107.612 112.002 102.012 116.754 95.3001 116.754V115.754ZM89.0187 114.126C90.8775 115.163 93.019 115.754 95.3001 115.754V116.754C92.8441 116.754 90.5354 116.117 88.5315 114.999L89.0187 114.126Z" fill="url(#paint3_linear_1111_2485)" mask="url(#path-3-inside-1_1111_2485)"/>
<defs>
<linearGradient id="paint0_linear_1111_2485" x1="83.5" y1="0" x2="83.5" y2="167" gradientUnits="userSpaceOnUse">
<stop stop-color="#7F7FD5"/>
<stop offset="0.5" stop-color="#86A8E7"/>
<stop offset="1" stop-color="#91EAE4"/>
</linearGradient>
<linearGradient id="paint1_linear_1111_2485" x1="83.5" y1="84.5" x2="119" y2="49.5" gradientUnits="userSpaceOnUse">
<stop stop-color="#F39A4B"/>
<stop offset="1" stop-color="#F2C74B"/>
</linearGradient>
<linearGradient id="paint2_linear_1111_2485" x1="28.9995" y1="98" x2="108" y2="74" gradientUnits="userSpaceOnUse">
<stop stop-color="white" stop-opacity="0.7"/>
<stop offset="0.5" stop-color="white" stop-opacity="0.85"/>
<stop offset="1" stop-color="white"/>
</linearGradient>
<linearGradient id="paint3_linear_1111_2485" x1="125" y1="91.5" x2="28.9995" y2="95.5" gradientUnits="userSpaceOnUse">
<stop stop-color="white"/>
<stop offset="0.5" stop-color="white" stop-opacity="0.85"/>
<stop offset="1" stop-color="white"/>
</linearGradient>
</defs>
</svg>
