<svg width="398" height="835" viewBox="0 0 398 835" fill="none" xmlns="http://www.w3.org/2000/svg">
<g filter="url(#filter0_i_1118_2647)">
<rect width="395" height="835" rx="54" fill="#CECECE"/>
</g>
<g filter="url(#filter1_i_1118_2647)">
<rect x="6" y="6" width="383" height="824" rx="48" fill="#242424"/>
</g>
<circle opacity="0.64" cx="198" cy="40" r="12" fill="black"/>
<path d="M200.019 45.6502C199.148 45.9614 198.216 46.067 197.298 45.9588C196.379 45.8506 195.498 45.5314 194.723 45.0263C193.949 44.5212 193.301 43.8438 192.831 43.0471C192.362 42.2503 192.082 41.3557 192.016 40.4332L194.04 40.2867C194.084 40.8971 194.269 41.4891 194.58 42.0163C194.891 42.5436 195.319 42.9918 195.832 43.3261C196.345 43.6603 196.928 43.8715 197.535 43.9431C198.143 44.0147 198.759 43.9448 199.336 43.7389L200.019 45.6502Z" fill="url(#paint0_linear_1118_2647)"/>
<path d="M198.682 45.7085C197.956 45.9678 197.18 46.0558 196.415 45.9657C195.649 45.8755 194.915 45.6095 194.27 45.1886C193.624 44.7677 193.084 44.2032 192.693 43.5392C192.301 42.8752 192.069 42.1298 192.013 41.361L192.245 41.3442C192.298 42.0772 192.52 42.788 192.893 43.4211C193.266 44.0542 193.781 44.5924 194.397 44.9937C195.012 45.395 195.712 45.6486 196.442 45.7346C197.172 45.8206 197.912 45.7367 198.604 45.4894L198.682 45.7085Z" fill="white"/>
<path opacity="0.9" d="M198.673 41.8834C198.383 41.9871 198.072 42.0223 197.766 41.9863C197.46 41.9502 197.166 41.8438 196.908 41.6754C196.65 41.5071 196.434 41.2813 196.277 41.0157C196.121 40.7501 196.027 40.4519 196.005 40.1444L196.68 40.0956C196.695 40.299 196.756 40.4964 196.86 40.6721C196.964 40.8479 197.106 40.9973 197.277 41.1087C197.448 41.2201 197.643 41.2905 197.845 41.3144C198.048 41.3382 198.253 41.3149 198.445 41.2463L198.673 41.8834Z" fill="url(#paint1_linear_1118_2647)"/>
<path d="M197.356 34.0347C198.275 33.9354 199.205 34.05 200.073 34.3696C200.941 34.6892 201.724 35.2052 202.359 35.8771C202.995 36.5491 203.466 37.3589 203.737 38.2433C204.008 39.1277 204.071 40.0627 203.92 40.9754L202.144 40.6827C202.249 40.0439 202.205 39.3894 202.016 38.7704C201.826 38.1514 201.496 37.5845 201.051 37.1142C200.606 36.6438 200.059 36.2827 199.451 36.059C198.844 35.8353 198.193 35.755 197.549 35.8245L197.356 34.0347Z" fill="url(#paint2_linear_1118_2647)"/>
<path opacity="0.9" d="M197.785 38.0116C198.092 37.9785 198.402 38.0167 198.691 38.1232C198.98 38.2297 199.241 38.4017 199.453 38.6257C199.665 38.8497 199.822 39.1196 199.912 39.4144C200.003 39.7092 200.024 40.0209 199.973 40.3251L199.381 40.2276C199.416 40.0146 199.402 39.7965 199.339 39.5901C199.275 39.3838 199.165 39.1948 199.017 39.0381C198.869 38.8813 198.686 38.7609 198.484 38.6863C198.281 38.6118 198.064 38.585 197.85 38.6082L197.785 38.0116Z" fill="url(#paint3_linear_1118_2647)"/>
<g filter="url(#filter2_b_1118_2647)">
<circle cx="198" cy="40" r="8" fill="black" fill-opacity="0.64"/>
</g>
<g filter="url(#filter3_i_1118_2647)">
<path d="M395 220H396C397.105 220 398 220.895 398 222V272.978C398 274.082 397.105 274.978 396 274.978H395V220Z" fill="#BCC5C1"/>
</g>
<g filter="url(#filter4_i_1118_2647)">
<path d="M395 318.044H396C397.105 318.044 398 318.94 398 320.044V426C398 427.104 397.105 428 396 428H395V318.044Z" fill="#BCC5C1"/>
</g>
<g clip-path="url(#clip0_1118_2647)">
<mask id="mask0_1118_2647" style="mask-type:alpha" maskUnits="userSpaceOnUse" x="18" y="18" width="360" height="800">
<path fill-rule="evenodd" clip-rule="evenodd" d="M52 18C33.2223 18 18 33.2223 18 52V784C18 802.778 33.2223 818 52 818H344C362.778 818 378 802.778 378 784V52C378 33.2223 362.778 18 344 18H52ZM198 52C204.627 52 210 46.6274 210 40C210 33.3726 204.627 28 198 28C191.373 28 186 33.3726 186 40C186 46.6274 191.373 52 198 52Z" fill="#D9D9D9"/>
</mask>
<g mask="url(#mask0_1118_2647)">
<rect x="18" y="18" width="360" height="800" rx="34" fill="#EAEFF4"/>
</g>
</g>
<mask id="mask1_1118_2647" style="mask-type:alpha" maskUnits="userSpaceOnUse" x="17" y="18" width="360" height="800">
<path fill-rule="evenodd" clip-rule="evenodd" d="M51 18C32.2223 18 17 33.2223 17 52V784C17 802.778 32.2223 818 51 818H343C361.778 818 377 802.778 377 784V52C377 33.2223 361.778 18 343 18H51ZM197 52C203.627 52 209 46.6274 209 40C209 33.3726 203.627 28 197 28C190.373 28 185 33.3726 185 40C185 46.6274 190.373 52 197 52Z" fill="#D9D9D9"/>
</mask>
<g mask="url(#mask1_1118_2647)">
<rect x="17" y="18" width="360" height="800" rx="34" fill="url(#paint4_linear_1118_2647)"/>
<path d="M77.608 462.176H86.12L100.136 486.432H100.648L114.664 462.176H123.24V508H114.664V485.408L115.176 477.728H114.664L103.016 498.272H97.832L86.12 477.728H85.608L86.12 485.408V508H77.608V462.176ZM161.155 500.448C159.704 503.008 157.742 505.077 155.267 506.656C152.835 508.235 149.848 509.024 146.307 509.024C143.918 509.024 141.699 508.619 139.651 507.808C137.646 506.955 135.896 505.781 134.403 504.288C132.91 502.795 131.736 501.045 130.883 499.04C130.072 496.992 129.667 494.752 129.667 492.32C129.667 490.059 130.072 487.925 130.883 485.92C131.694 483.872 132.824 482.101 134.275 480.608C135.726 479.072 137.432 477.856 139.395 476.96C141.4 476.064 143.598 475.616 145.987 475.616C148.504 475.616 150.744 476.043 152.707 476.896C154.67 477.707 156.312 478.859 157.635 480.352C158.958 481.803 159.96 483.531 160.643 485.536C161.326 487.541 161.667 489.717 161.667 492.064C161.667 492.363 161.667 492.619 161.667 492.832C161.624 493.088 161.603 493.323 161.603 493.536C161.56 493.749 161.539 493.984 161.539 494.24H137.923C138.094 495.52 138.435 496.629 138.947 497.568C139.502 498.464 140.163 499.232 140.931 499.872C141.742 500.469 142.616 500.917 143.555 501.216C144.494 501.472 145.454 501.6 146.435 501.6C148.355 501.6 149.934 501.173 151.171 500.32C152.451 499.424 153.454 498.315 154.179 496.992L161.155 500.448ZM153.539 488.288C153.496 487.733 153.304 487.115 152.963 486.432C152.664 485.749 152.195 485.109 151.555 484.512C150.958 483.915 150.19 483.424 149.251 483.04C148.355 482.656 147.267 482.464 145.987 482.464C144.195 482.464 142.616 482.976 141.251 484C139.886 485.024 138.926 486.453 138.371 488.288H153.539ZM169.54 483.808H164.036V476.64H169.54V467.04H177.924V476.64H185.604V483.808H177.924V495.968C177.924 496.693 177.988 497.376 178.116 498.016C178.287 498.613 178.585 499.125 179.012 499.552C179.609 500.235 180.463 500.576 181.572 500.576C182.297 500.576 182.873 500.512 183.3 500.384C183.727 500.213 184.132 500 184.516 499.744L186.884 507.104C185.903 507.573 184.836 507.915 183.684 508.128C182.575 508.384 181.337 508.512 179.972 508.512C178.393 508.512 176.964 508.277 175.684 507.808C174.447 507.296 173.401 506.613 172.548 505.76C170.543 503.84 169.54 501.109 169.54 497.568V483.808ZM221.155 500.448C219.704 503.008 217.742 505.077 215.267 506.656C212.835 508.235 209.848 509.024 206.307 509.024C203.918 509.024 201.699 508.619 199.651 507.808C197.646 506.955 195.896 505.781 194.403 504.288C192.91 502.795 191.736 501.045 190.883 499.04C190.072 496.992 189.667 494.752 189.667 492.32C189.667 490.059 190.072 487.925 190.883 485.92C191.694 483.872 192.824 482.101 194.275 480.608C195.726 479.072 197.432 477.856 199.395 476.96C201.4 476.064 203.598 475.616 205.987 475.616C208.504 475.616 210.744 476.043 212.707 476.896C214.67 477.707 216.312 478.859 217.635 480.352C218.958 481.803 219.96 483.531 220.643 485.536C221.326 487.541 221.667 489.717 221.667 492.064C221.667 492.363 221.667 492.619 221.667 492.832C221.624 493.088 221.603 493.323 221.603 493.536C221.56 493.749 221.539 493.984 221.539 494.24H197.923C198.094 495.52 198.435 496.629 198.947 497.568C199.502 498.464 200.163 499.232 200.931 499.872C201.742 500.469 202.616 500.917 203.555 501.216C204.494 501.472 205.454 501.6 206.435 501.6C208.355 501.6 209.934 501.173 211.171 500.32C212.451 499.424 213.454 498.315 214.179 496.992L221.155 500.448ZM213.539 488.288C213.496 487.733 213.304 487.115 212.963 486.432C212.664 485.749 212.195 485.109 211.555 484.512C210.958 483.915 210.19 483.424 209.251 483.04C208.355 482.656 207.267 482.464 205.987 482.464C204.195 482.464 202.616 482.976 201.251 484C199.886 485.024 198.926 486.453 198.371 488.288H213.539ZM242.182 475.616C244.614 475.616 246.833 476.043 248.838 476.896C250.886 477.707 252.635 478.859 254.086 480.352C255.579 481.803 256.731 483.552 257.542 485.6C258.395 487.648 258.822 489.888 258.822 492.32C258.822 494.752 258.395 496.992 257.542 499.04C256.731 501.088 255.579 502.859 254.086 504.352C252.635 505.803 250.886 506.955 248.838 507.808C246.833 508.619 244.614 509.024 242.182 509.024C239.75 509.024 237.51 508.619 235.462 507.808C233.457 506.955 231.707 505.803 230.214 504.352C228.763 502.859 227.611 501.088 226.758 499.04C225.947 496.992 225.542 494.752 225.542 492.32C225.542 489.888 225.947 487.648 226.758 485.6C227.611 483.552 228.763 481.803 230.214 480.352C231.707 478.859 233.457 477.707 235.462 476.896C237.51 476.043 239.75 475.616 242.182 475.616ZM242.182 501.28C243.249 501.28 244.273 501.088 245.254 500.704C246.278 500.277 247.174 499.68 247.942 498.912C248.71 498.144 249.307 497.205 249.734 496.096C250.203 494.987 250.438 493.728 250.438 492.32C250.438 490.912 250.203 489.653 249.734 488.544C249.307 487.435 248.71 486.496 247.942 485.728C247.174 484.96 246.278 484.384 245.254 484C244.273 483.573 243.249 483.36 242.182 483.36C241.073 483.36 240.027 483.573 239.046 484C238.065 484.384 237.19 484.96 236.422 485.728C235.654 486.496 235.035 487.435 234.566 488.544C234.139 489.653 233.926 490.912 233.926 492.32C233.926 493.728 234.139 494.987 234.566 496.096C235.035 497.205 235.654 498.144 236.422 498.912C237.19 499.68 238.065 500.277 239.046 500.704C240.027 501.088 241.073 501.28 242.182 501.28ZM263.584 476.64H271.456V480.992H271.968C272.352 480.224 272.864 479.52 273.504 478.88C274.144 478.24 274.848 477.685 275.616 477.216C276.427 476.747 277.28 476.384 278.176 476.128C279.115 475.872 280.032 475.744 280.928 475.744C282.037 475.744 282.976 475.851 283.744 476.064C284.555 476.277 285.237 476.555 285.792 476.896L283.552 484.512C283.04 484.256 282.464 484.064 281.824 483.936C281.227 483.765 280.48 483.68 279.584 483.68C278.432 483.68 277.387 483.915 276.448 484.384C275.509 484.811 274.699 485.429 274.016 486.24C273.376 487.051 272.864 488.011 272.48 489.12C272.139 490.187 271.968 491.36 271.968 492.64V508H263.584V476.64ZM307.725 504.672H307.213C306.231 505.867 305.037 506.891 303.628 507.744C302.263 508.597 300.493 509.024 298.317 509.024C296.695 509.024 295.159 508.747 293.709 508.192C292.301 507.68 291.063 506.955 289.997 506.016C288.93 505.077 288.098 503.947 287.501 502.624C286.903 501.301 286.605 499.851 286.605 498.272C286.605 496.651 286.925 495.2 287.565 493.92C288.205 492.597 289.101 491.467 290.253 490.528C291.405 489.589 292.749 488.885 294.285 488.416C295.863 487.904 297.57 487.648 299.405 487.648C301.453 487.648 303.138 487.819 304.461 488.16C305.783 488.459 306.871 488.779 307.725 489.12V488.16C307.725 486.496 307.063 485.131 305.741 484.064C304.418 482.955 302.775 482.4 300.812 482.4C297.911 482.4 295.458 483.616 293.453 486.048L287.373 481.888C290.701 477.707 295.245 475.616 301.005 475.616C305.869 475.616 309.581 476.768 312.141 479.072C314.701 481.333 315.981 484.704 315.981 489.184V508H307.725V504.672ZM307.725 495.264C306.743 494.795 305.719 494.432 304.653 494.176C303.629 493.877 302.498 493.728 301.26 493.728C299.255 493.728 297.698 494.176 296.589 495.072C295.522 495.925 294.989 496.992 294.989 498.272C294.989 499.552 295.501 500.576 296.525 501.344C297.591 502.112 298.807 502.496 300.173 502.496C301.282 502.496 302.306 502.304 303.245 501.92C304.183 501.493 304.973 500.96 305.613 500.32C306.295 499.637 306.807 498.869 307.149 498.016C307.533 497.12 307.725 496.203 307.725 495.264Z" fill="white"/>
<circle cx="216" cy="367" r="25" fill="url(#paint5_linear_1118_2647)" fill-opacity="0.95"/>
<mask id="path-19-inside-1_1118_2647" fill="white">
<path fill-rule="evenodd" clip-rule="evenodd" d="M202.775 413.563C199.402 416.524 194.98 418.32 190.138 418.32C183.291 418.32 177.283 414.729 173.894 409.327C170.652 411.841 166.582 413.338 162.162 413.338C151.579 413.338 143 404.758 143 394.175C143 383.592 151.579 375.013 162.162 375.013L162.195 375.013C162.79 364.965 171.126 357 181.323 357C189.057 357 195.721 361.582 198.748 368.179C201.056 367.194 203.596 366.649 206.263 366.649C214.129 366.649 220.888 371.389 223.84 378.168C224.351 378.109 224.87 378.079 225.396 378.079C232.804 378.079 238.81 384.084 238.81 391.493C238.81 398.901 232.804 404.906 225.396 404.906C224.378 404.906 223.387 404.793 222.434 404.578C221.17 410.673 215.77 415.254 209.3 415.254C206.932 415.254 204.706 414.64 202.775 413.563Z"/>
</mask>
<path fill-rule="evenodd" clip-rule="evenodd" d="M202.775 413.563C199.402 416.524 194.98 418.32 190.138 418.32C183.291 418.32 177.283 414.729 173.894 409.327C170.652 411.841 166.582 413.338 162.162 413.338C151.579 413.338 143 404.758 143 394.175C143 383.592 151.579 375.013 162.162 375.013L162.195 375.013C162.79 364.965 171.126 357 181.323 357C189.057 357 195.721 361.582 198.748 368.179C201.056 367.194 203.596 366.649 206.263 366.649C214.129 366.649 220.888 371.389 223.84 378.168C224.351 378.109 224.87 378.079 225.396 378.079C232.804 378.079 238.81 384.084 238.81 391.493C238.81 398.901 232.804 404.906 225.396 404.906C224.378 404.906 223.387 404.793 222.434 404.578C221.17 410.673 215.77 415.254 209.3 415.254C206.932 415.254 204.706 414.64 202.775 413.563Z" fill="url(#paint6_linear_1118_2647)"/>
<path d="M202.775 413.563L202.445 413.187L202.71 412.954L203.019 413.126L202.775 413.563ZM173.894 409.327L173.588 408.932L174.024 408.594L174.318 409.061L173.894 409.327ZM162.162 375.013L162.162 374.513L162.162 374.513L162.162 375.013ZM162.195 375.013L162.694 375.042L162.666 375.513L162.195 375.513L162.195 375.013ZM198.748 368.179L198.945 368.639L198.497 368.83L198.294 368.388L198.748 368.179ZM223.84 378.168L223.898 378.665L223.53 378.707L223.382 378.368L223.84 378.168ZM222.434 404.578L221.944 404.477L222.048 403.978L222.544 404.09L222.434 404.578ZM203.105 413.939C199.644 416.977 195.106 418.82 190.138 418.82V417.82C194.854 417.82 199.16 416.072 202.445 413.187L203.105 413.939ZM190.138 418.82C183.112 418.82 176.947 415.134 173.471 409.593L174.318 409.061C177.619 414.323 183.47 417.82 190.138 417.82V418.82ZM174.201 409.722C170.874 412.302 166.696 413.838 162.162 413.838V412.838C166.467 412.838 170.43 411.381 173.588 408.932L174.201 409.722ZM162.162 413.838C151.303 413.838 142.5 405.035 142.5 394.175H143.5C143.5 404.482 151.855 412.838 162.162 412.838V413.838ZM142.5 394.175C142.5 383.316 151.303 374.513 162.162 374.513V375.513C151.855 375.513 143.5 383.868 143.5 394.175H142.5ZM162.162 374.513L162.196 374.513L162.195 375.513L162.161 375.513L162.162 374.513ZM161.696 374.983C162.306 364.673 170.86 356.5 181.323 356.5V357.5C171.393 357.5 163.273 365.257 162.694 375.042L161.696 374.983ZM181.323 356.5C189.26 356.5 196.097 361.202 199.203 367.971L198.294 368.388C195.345 361.961 188.855 357.5 181.323 357.5V356.5ZM198.552 367.719C200.92 366.709 203.527 366.149 206.263 366.149V367.149C203.665 367.149 201.191 367.68 198.945 368.639L198.552 367.719ZM206.263 366.149C214.335 366.149 221.27 371.013 224.299 377.968L223.382 378.368C220.506 371.764 213.923 367.149 206.263 367.149V366.149ZM223.783 377.671C224.312 377.61 224.851 377.579 225.396 377.579V378.579C224.889 378.579 224.389 378.608 223.898 378.665L223.783 377.671ZM225.396 377.579C233.08 377.579 239.31 383.808 239.31 391.493H238.31C238.31 384.36 232.528 378.579 225.396 378.579V377.579ZM239.31 391.493C239.31 399.177 233.08 405.406 225.396 405.406V404.406C232.528 404.406 238.31 398.625 238.31 391.493H239.31ZM225.396 405.406C224.341 405.406 223.313 405.289 222.324 405.066L222.544 404.09C223.461 404.297 224.416 404.406 225.396 404.406V405.406ZM209.3 414.754C215.528 414.754 220.728 410.344 221.944 404.477L222.924 404.68C221.612 411.002 216.012 415.754 209.3 415.754V414.754ZM203.019 413.126C204.877 414.163 207.019 414.754 209.3 414.754V415.754C206.844 415.754 204.535 415.117 202.532 413.999L203.019 413.126Z" fill="url(#paint7_linear_1118_2647)" mask="url(#path-19-inside-1_1118_2647)"/>
<path opacity="0.6" d="M49.25 40.0127V50H47.6025V41.9678L45.1621 42.7949V41.4346L49.0518 40.0127H49.25ZM59.3809 48.6875V50H52.709V48.8721L55.9492 45.3379C56.3047 44.9368 56.585 44.5905 56.79 44.2988C56.9951 44.0072 57.1387 43.7451 57.2207 43.5127C57.3073 43.2757 57.3506 43.0456 57.3506 42.8223C57.3506 42.5078 57.2913 42.2321 57.1729 41.9951C57.0589 41.7536 56.8903 41.5645 56.667 41.4277C56.4437 41.2865 56.1725 41.2158 55.8535 41.2158C55.4844 41.2158 55.1745 41.2956 54.9238 41.4551C54.6732 41.6146 54.484 41.8356 54.3564 42.1182C54.2288 42.3962 54.165 42.7152 54.165 43.0752H52.5176C52.5176 42.4964 52.6497 41.9678 52.9141 41.4893C53.1784 41.0062 53.5612 40.6234 54.0625 40.3408C54.5638 40.0537 55.1676 39.9102 55.874 39.9102C56.5394 39.9102 57.1045 40.0218 57.5693 40.2451C58.0342 40.4684 58.3874 40.7852 58.6289 41.1953C58.875 41.6055 58.998 42.0908 58.998 42.6514C58.998 42.9613 58.9479 43.2689 58.8477 43.5742C58.7474 43.8796 58.6038 44.1849 58.417 44.4902C58.2347 44.791 58.0182 45.0941 57.7676 45.3994C57.5169 45.7002 57.2412 46.0055 56.9404 46.3154L54.7871 48.6875H59.3809ZM60.7822 49.1797C60.7822 48.9245 60.8688 48.7103 61.042 48.5371C61.2152 48.3594 61.4499 48.2705 61.7461 48.2705C62.0469 48.2705 62.2816 48.3594 62.4502 48.5371C62.6234 48.7103 62.71 48.9245 62.71 49.1797C62.71 49.4349 62.6234 49.6491 62.4502 49.8223C62.2816 49.9954 62.0469 50.082 61.7461 50.082C61.4499 50.082 61.2152 49.9954 61.042 49.8223C60.8688 49.6491 60.7822 49.4349 60.7822 49.1797ZM60.7891 43.3555C60.7891 43.1003 60.8757 42.8861 61.0488 42.7129C61.222 42.5352 61.4567 42.4463 61.7529 42.4463C62.0537 42.4463 62.2884 42.5352 62.457 42.7129C62.6302 42.8861 62.7168 43.1003 62.7168 43.3555C62.7168 43.6107 62.6302 43.8249 62.457 43.998C62.2884 44.1712 62.0537 44.2578 61.7529 44.2578C61.4567 44.2578 61.222 44.1712 61.0488 43.998C60.8757 43.8249 60.7891 43.6107 60.7891 43.3555ZM70.8447 44.1895V45.8164C70.8447 46.5957 70.7673 47.2611 70.6123 47.8125C70.4619 48.3594 70.2432 48.8037 69.9561 49.1455C69.6689 49.4873 69.3249 49.738 68.9238 49.8975C68.5273 50.057 68.083 50.1367 67.5908 50.1367C67.1989 50.1367 66.8343 50.0866 66.4971 49.9863C66.1644 49.8861 65.8636 49.7288 65.5947 49.5146C65.3258 49.3005 65.0957 49.0247 64.9043 48.6875C64.7174 48.3457 64.5716 47.9378 64.4668 47.4639C64.3665 46.9899 64.3164 46.4408 64.3164 45.8164V44.1895C64.3164 43.4056 64.3939 42.7448 64.5488 42.207C64.7038 41.6647 64.9248 41.2249 65.2119 40.8877C65.499 40.5459 65.8408 40.2975 66.2373 40.1426C66.6383 39.9876 67.085 39.9102 67.5771 39.9102C67.9736 39.9102 68.3382 39.9603 68.6709 40.0605C69.0081 40.1562 69.3089 40.3089 69.5732 40.5186C69.8421 40.7282 70.07 41.0016 70.2568 41.3389C70.4482 41.6715 70.5941 42.0749 70.6943 42.5488C70.7946 43.0182 70.8447 43.5651 70.8447 44.1895ZM69.1973 46.0488V43.9434C69.1973 43.5469 69.1745 43.1982 69.1289 42.8975C69.0833 42.5921 69.015 42.3346 68.9238 42.125C68.8372 41.9108 68.7279 41.7376 68.5957 41.6055C68.4635 41.4688 68.3132 41.3708 68.1445 41.3115C67.9759 41.2477 67.7868 41.2158 67.5771 41.2158C67.3219 41.2158 67.0941 41.266 66.8936 41.3662C66.693 41.4619 66.5244 41.6169 66.3877 41.8311C66.251 42.0452 66.1462 42.3278 66.0732 42.6787C66.0049 43.0251 65.9707 43.4466 65.9707 43.9434V46.0488C65.9707 46.4499 65.9935 46.8031 66.0391 47.1084C66.0846 47.4137 66.153 47.6758 66.2441 47.8945C66.3353 48.1087 66.4447 48.2865 66.5723 48.4277C66.7044 48.5645 66.8548 48.6647 67.0234 48.7285C67.1966 48.7923 67.3857 48.8242 67.5908 48.8242C67.8506 48.8242 68.0807 48.7741 68.2812 48.6738C68.4818 48.5736 68.6504 48.4141 68.7871 48.1953C68.9238 47.972 69.0264 47.6826 69.0947 47.3271C69.1631 46.9717 69.1973 46.5456 69.1973 46.0488ZM78.8018 44.1895V45.8164C78.8018 46.5957 78.7243 47.2611 78.5693 47.8125C78.4189 48.3594 78.2002 48.8037 77.9131 49.1455C77.626 49.4873 77.2819 49.738 76.8809 49.8975C76.4844 50.057 76.04 50.1367 75.5479 50.1367C75.1559 50.1367 74.7913 50.0866 74.4541 49.9863C74.1214 49.8861 73.8206 49.7288 73.5518 49.5146C73.2829 49.3005 73.0527 49.0247 72.8613 48.6875C72.6745 48.3457 72.5286 47.9378 72.4238 47.4639C72.3236 46.9899 72.2734 46.4408 72.2734 45.8164V44.1895C72.2734 43.4056 72.3509 42.7448 72.5059 42.207C72.6608 41.6647 72.8818 41.2249 73.1689 40.8877C73.4561 40.5459 73.7979 40.2975 74.1943 40.1426C74.5954 39.9876 75.042 39.9102 75.5342 39.9102C75.9307 39.9102 76.2952 39.9603 76.6279 40.0605C76.9652 40.1562 77.266 40.3089 77.5303 40.5186C77.7992 40.7282 78.027 41.0016 78.2139 41.3389C78.4053 41.6715 78.5511 42.0749 78.6514 42.5488C78.7516 43.0182 78.8018 43.5651 78.8018 44.1895ZM77.1543 46.0488V43.9434C77.1543 43.5469 77.1315 43.1982 77.0859 42.8975C77.0404 42.5921 76.972 42.3346 76.8809 42.125C76.7943 41.9108 76.6849 41.7376 76.5527 41.6055C76.4206 41.4688 76.2702 41.3708 76.1016 41.3115C75.9329 41.2477 75.7438 41.2158 75.5342 41.2158C75.279 41.2158 75.0511 41.266 74.8506 41.3662C74.6501 41.4619 74.4814 41.6169 74.3447 41.8311C74.208 42.0452 74.1032 42.3278 74.0303 42.6787C73.9619 43.0251 73.9277 43.4466 73.9277 43.9434V46.0488C73.9277 46.4499 73.9505 46.8031 73.9961 47.1084C74.0417 47.4137 74.11 47.6758 74.2012 47.8945C74.2923 48.1087 74.4017 48.2865 74.5293 48.4277C74.6615 48.5645 74.8118 48.6647 74.9805 48.7285C75.1536 48.7923 75.3428 48.8242 75.5479 48.8242C75.8076 48.8242 76.0378 48.7741 76.2383 48.6738C76.4388 48.5736 76.6074 48.4141 76.7441 48.1953C76.8809 47.972 76.9834 47.6826 77.0518 47.3271C77.1201 46.9717 77.1543 46.5456 77.1543 46.0488Z" fill="white"/>
<circle opacity="0.5" cx="29" cy="45" r="2" fill="white"/>
<path d="M353.372 41.4865C353.727 41.1033 353.73 40.5084 353.348 40.1525C352.38 39.2506 351.284 38.5198 350.1 37.9896C348.642 37.3363 347.079 37 345.5 37C343.921 37 342.358 37.3363 340.9 37.9896C339.716 38.5199 338.62 39.2506 337.652 40.1525C337.27 40.5084 337.273 41.1033 337.628 41.4865L345.5 50L353.372 41.4865Z" fill="white"/>
<path d="M331 49V38.4142C331 37.5233 329.923 37.0771 329.293 37.7071L318.707 48.2929C318.077 48.9229 318.523 50 319.414 50H330C330.552 50 331 49.5523 331 49Z" fill="white"/>
<path fill-rule="evenodd" clip-rule="evenodd" d="M362 37C361.448 37 361 37.4477 361 38H360C359.448 38 359 38.4477 359 39V49C359 49.5523 359.448 50 360 50H366C366.552 50 367 49.5523 367 49V39C367 38.4477 366.552 38 366 38H365C365 37.4477 364.552 37 364 37H362Z" fill="white"/>
</g>
<defs>
<filter id="filter0_i_1118_2647" x="0" y="0" width="395" height="839" filterUnits="userSpaceOnUse" color-interpolation-filters="sRGB">
<feFlood flood-opacity="0" result="BackgroundImageFix"/>
<feBlend mode="normal" in="SourceGraphic" in2="BackgroundImageFix" result="shape"/>
<feColorMatrix in="SourceAlpha" type="matrix" values="0 0 0 0 0 0 0 0 0 0 0 0 0 0 0 0 0 0 127 0" result="hardAlpha"/>
<feOffset dy="4"/>
<feGaussianBlur stdDeviation="2"/>
<feComposite in2="hardAlpha" operator="arithmetic" k2="-1" k3="1"/>
<feColorMatrix type="matrix" values="0 0 0 0 0.647059 0 0 0 0 0.839216 0 0 0 0 0.654902 0 0 0 0.25 0"/>
<feBlend mode="normal" in2="shape" result="effect1_innerShadow_1118_2647"/>
</filter>
<filter id="filter1_i_1118_2647" x="6" y="6" width="387" height="824" filterUnits="userSpaceOnUse" color-interpolation-filters="sRGB">
<feFlood flood-opacity="0" result="BackgroundImageFix"/>
<feBlend mode="normal" in="SourceGraphic" in2="BackgroundImageFix" result="shape"/>
<feColorMatrix in="SourceAlpha" type="matrix" values="0 0 0 0 0 0 0 0 0 0 0 0 0 0 0 0 0 0 127 0" result="hardAlpha"/>
<feOffset dx="5"/>
<feGaussianBlur stdDeviation="2"/>
<feComposite in2="hardAlpha" operator="arithmetic" k2="-1" k3="1"/>
<feColorMatrix type="matrix" values="0 0 0 0 1 0 0 0 0 1 0 0 0 0 1 0 0 0 0.25 0"/>
<feBlend mode="normal" in2="shape" result="effect1_innerShadow_1118_2647"/>
</filter>
<filter id="filter2_b_1118_2647" x="188" y="30" width="20" height="20" filterUnits="userSpaceOnUse" color-interpolation-filters="sRGB">
<feFlood flood-opacity="0" result="BackgroundImageFix"/>
<feGaussianBlur in="BackgroundImageFix" stdDeviation="1"/>
<feComposite in2="SourceAlpha" operator="in" result="effect1_backgroundBlur_1118_2647"/>
<feBlend mode="normal" in="SourceGraphic" in2="effect1_backgroundBlur_1118_2647" result="shape"/>
</filter>
<filter id="filter3_i_1118_2647" x="395" y="220" width="3" height="58.9778" filterUnits="userSpaceOnUse" color-interpolation-filters="sRGB">
<feFlood flood-opacity="0" result="BackgroundImageFix"/>
<feBlend mode="normal" in="SourceGraphic" in2="BackgroundImageFix" result="shape"/>
<feColorMatrix in="SourceAlpha" type="matrix" values="0 0 0 0 0 0 0 0 0 0 0 0 0 0 0 0 0 0 127 0" result="hardAlpha"/>
<feOffset dy="4"/>
<feGaussianBlur stdDeviation="2"/>
<feComposite in2="hardAlpha" operator="arithmetic" k2="-1" k3="1"/>
<feColorMatrix type="matrix" values="0 0 0 0 0 0 0 0 0 0 0 0 0 0 0 0 0 0 0.25 0"/>
<feBlend mode="normal" in2="shape" result="effect1_innerShadow_1118_2647"/>
</filter>
<filter id="filter4_i_1118_2647" x="395" y="318.044" width="3" height="113.956" filterUnits="userSpaceOnUse" color-interpolation-filters="sRGB">
<feFlood flood-opacity="0" result="BackgroundImageFix"/>
<feBlend mode="normal" in="SourceGraphic" in2="BackgroundImageFix" result="shape"/>
<feColorMatrix in="SourceAlpha" type="matrix" values="0 0 0 0 0 0 0 0 0 0 0 0 0 0 0 0 0 0 127 0" result="hardAlpha"/>
<feOffset dy="4"/>
<feGaussianBlur stdDeviation="2"/>
<feComposite in2="hardAlpha" operator="arithmetic" k2="-1" k3="1"/>
<feColorMatrix type="matrix" values="0 0 0 0 0 0 0 0 0 0 0 0 0 0 0 0 0 0 0.25 0"/>
<feBlend mode="normal" in2="shape" result="effect1_innerShadow_1118_2647"/>
</filter>
<linearGradient id="paint0_linear_1118_2647" x1="194.5" y1="45.5" x2="197.5" y2="41" gradientUnits="userSpaceOnUse">
<stop stop-color="white"/>
<stop offset="1" stop-color="#00D1B8"/>
</linearGradient>
<linearGradient id="paint1_linear_1118_2647" x1="196.833" y1="41.8333" x2="197.833" y2="40.3333" gradientUnits="userSpaceOnUse">
<stop stop-color="white"/>
<stop offset="1" stop-color="#00D1B8"/>
</linearGradient>
<linearGradient id="paint2_linear_1118_2647" x1="204" y1="39" x2="199.5" y2="34" gradientUnits="userSpaceOnUse">
<stop stop-color="#D21FFF"/>
<stop offset="1" stop-color="#8EBBFF"/>
</linearGradient>
<linearGradient id="paint3_linear_1118_2647" x1="200" y1="39.6667" x2="198.5" y2="38" gradientUnits="userSpaceOnUse">
<stop stop-color="#D21FFF"/>
<stop offset="1" stop-color="#8EBBFF"/>
</linearGradient>
<linearGradient id="paint4_linear_1118_2647" x1="197" y1="18" x2="197" y2="818" gradientUnits="userSpaceOnUse">
<stop stop-color="#7F7FD5"/>
<stop offset="0.5" stop-color="#86A8E7"/>
<stop offset="1" stop-color="#91EAE4"/>
</linearGradient>
<linearGradient id="paint5_linear_1118_2647" x1="197.5" y1="383.5" x2="233" y2="348.5" gradientUnits="userSpaceOnUse">
<stop stop-color="#F39A4B"/>
<stop offset="1" stop-color="#F2C74B"/>
</linearGradient>
<linearGradient id="paint6_linear_1118_2647" x1="143" y1="397" x2="222" y2="373" gradientUnits="userSpaceOnUse">
<stop stop-color="white" stop-opacity="0.7"/>
<stop offset="0.5" stop-color="white" stop-opacity="0.85"/>
<stop offset="1" stop-color="white"/>
</linearGradient>
<linearGradient id="paint7_linear_1118_2647" x1="239" y1="390.5" x2="143" y2="394.5" gradientUnits="userSpaceOnUse">
<stop stop-color="white"/>
<stop offset="0.5" stop-color="white" stop-opacity="0.85"/>
<stop offset="1" stop-color="white"/>
</linearGradient>
<clipPath id="clip0_1118_2647">
<rect x="18" y="18" width="360" height="800" rx="34" fill="white"/>
</clipPath>
</defs>
</svg>
